<svg id="buy-now-icon" xmlns="http://www.w3.org/2000/svg" width="20.958" height="31.536" viewBox="0 0 20.958 31.536">
  <g id="Group_524" data-name="Group 524" transform="translate(8.085)">
    <g id="Group_523" data-name="Group 523">
      <path id="Path_76" data-name="Path 76" d="M217.749,0a.616.616,0,0,0-.616.616v3.8a.616.616,0,0,0,1.232,0V.616A.616.616,0,0,0,217.749,0Z" transform="translate(-217.133)" fill="#062997"/>
    </g>
  </g>
  <g id="Group_526" data-name="Group 526" transform="translate(12.37 8.085)">
    <g id="Group_525" data-name="Group 525">
      <path id="Path_77" data-name="Path 77" d="M291.119,131.266h-3.8a.616.616,0,1,0,0,1.232h3.8a.616.616,0,0,0,0-1.232Z" transform="translate(-286.705 -131.266)" fill="#062997"/>
    </g>
  </g>
  <g id="Group_528" data-name="Group 528" transform="translate(0 8.083)">
    <g id="Group_527" data-name="Group 527">
      <path id="Path_78" data-name="Path 78" d="M90.281,131.239h-3.8a.616.616,0,1,0,0,1.232h3.8a.616.616,0,0,0,0-1.232Z" transform="translate(-85.867 -131.239)" fill="#062997"/>
    </g>
  </g>
  <g id="Group_530" data-name="Group 530" transform="translate(2.809 2.808)">
    <g id="Group_529" data-name="Group 529">
      <path id="Path_79" data-name="Path 79" d="M134.32,47.563l-1.793-1.793a.616.616,0,0,0-.871.871l1.793,1.793a.616.616,0,0,0,.871-.871Z" transform="translate(-131.475 -45.589)" fill="#062997"/>
    </g>
  </g>
  <g id="Group_532" data-name="Group 532" transform="translate(11.567 2.809)">
    <g id="Group_531" data-name="Group 531">
      <path id="Path_80" data-name="Path 80" d="M276.511,45.789a.616.616,0,0,0-.871,0l-1.793,1.793a.616.616,0,0,0,.871.871l1.793-1.793A.616.616,0,0,0,276.511,45.789Z" transform="translate(-273.666 -45.608)" fill="#062997"/>
    </g>
  </g>
  <g id="Group_534" data-name="Group 534" transform="translate(6.422 6.421)">
    <g id="Group_533" data-name="Group 533">
      <path id="Path_81" data-name="Path 81" d="M202.39,111.856a2.264,2.264,0,0,0-1.142.308,2.277,2.277,0,0,0-3.848-.907,2.273,2.273,0,0,0-2.71-.467v-4.258a2.279,2.279,0,1,0-4.558,0v3.248a.616.616,0,1,0,1.232,0v-3.248a1.047,1.047,0,0,1,2.094,0v10.311a.616.616,0,0,0,1.232,0v-4.03a1.047,1.047,0,1,1,2.094,0v4.03a.616.616,0,1,0,1.232,0v-4.03a1.047,1.047,0,1,1,2.094,0v4.03a.616.616,0,1,0,1.232,0v-2.707a1.047,1.047,0,1,1,2.094,0v6.441a7.624,7.624,0,0,1-.123,1.365.616.616,0,0,0,.5.716.623.623,0,0,0,.111.01.616.616,0,0,0,.605-.506,8.869,8.869,0,0,0,.143-1.586v-6.441A2.282,2.282,0,0,0,202.39,111.856Z" transform="translate(-190.133 -104.252)" fill="#062997"/>
    </g>
  </g>
  <g id="Group_536" data-name="Group 536" transform="translate(1.181 15.398)">
    <g id="Group_535" data-name="Group 535">
      <path id="Path_82" data-name="Path 82" d="M122.059,262.905a.616.616,0,0,0-.87-.03,7.559,7.559,0,0,1-11.962-2.241l-2.837-5.875a1.13,1.13,0,0,1,1.982-1.079l2.007,3.292a.616.616,0,0,0,1.142-.321v-6.036a.616.616,0,1,0-1.232,0v3.842l-.865-1.419a2.361,2.361,0,0,0-4.143,2.256l2.837,5.875a8.791,8.791,0,0,0,13.911,2.606A.616.616,0,0,0,122.059,262.905Z" transform="translate(-105.047 -250)" fill="#062997"/>
    </g>
  </g>
  <g id="Group_538" data-name="Group 538" transform="translate(18.735 26.034)">
    <g id="Group_537" data-name="Group 537">
      <path id="Path_83" data-name="Path 83" d="M391.093,422.85a.616.616,0,1,0,.18.435A.621.621,0,0,0,391.093,422.85Z" transform="translate(-390.042 -422.67)" fill="#062997"/>
    </g>
  </g>
  <g id="Group_540" data-name="Group 540" transform="translate(6.422 13.427)">
    <g id="Group_539" data-name="Group 539">
      <path id="Path_84" data-name="Path 84" d="M191.183,218.18a.616.616,0,1,0,.18.435A.621.621,0,0,0,191.183,218.18Z" transform="translate(-190.132 -218)" fill="#062997"/>
    </g>
  </g>
</svg>
