<svg xmlns="http://www.w3.org/2000/svg" width="18.013" height="14.636" viewBox="0 0 18.013 14.636">
  <path id="camera" d="M7.918,14.228a3.659,3.659,0,1,0,3.659-3.659,3.659,3.659,0,0,0-3.659,3.659Zm11.54-6.192h-3.94c-.281-1.126-.563-2.252-1.689-2.252h-4.5C8.2,5.784,7.918,6.91,7.637,8.036H3.7A1.129,1.129,0,0,0,2.571,9.162V19.294A1.129,1.129,0,0,0,3.7,20.42H19.458a1.129,1.129,0,0,0,1.126-1.126V9.162a1.129,1.129,0,0,0-1.126-1.126ZM11.577,19.224a5,5,0,1,1,5-5A5,5,0,0,1,11.577,19.224Zm7.881-7.81H17.206V10.287h2.252Z" transform="translate(-2.571 -5.784)" fill="#9b9b9b"/>
</svg>
