<svg xmlns="http://www.w3.org/2000/svg" width="30.429" height="28.525" viewBox="0 0 30.429 28.525">
  <g id="Home-white" transform="translate(0 -16.017)">
    <path id="Path_69" data-name="Path 69" d="M62.941,210.032H42.734A2.737,2.737,0,0,1,40,207.3V192.914a.951.951,0,1,1,1.9,0V207.3a.833.833,0,0,0,.832.832H62.941a.833.833,0,0,0,.832-.832V192.914a.951.951,0,1,1,1.9,0V207.3A2.737,2.737,0,0,1,62.941,210.032Z" transform="translate(-37.622 -165.489)" fill="#fff"/>
    <path id="Path_70" data-name="Path 70" d="M29.479,30.753a.948.948,0,0,1-.672-.279L16.98,18.648a2.5,2.5,0,0,0-3.53,0L1.624,30.474A.951.951,0,0,1,.279,29.129L12.105,17.3a4.4,4.4,0,0,1,6.22,0L30.151,29.129a.951.951,0,0,1-.672,1.623Z" transform="translate(0 0)" fill="#fff"/>
    <path id="Path_71" data-name="Path 71" d="M184.558,300.345h-7.607a.951.951,0,0,1-.951-.951v-8.439a2.975,2.975,0,0,1,2.972-2.972h3.566a2.975,2.975,0,0,1,2.972,2.972v8.439A.951.951,0,0,1,184.558,300.345Zm-6.656-1.9h5.705v-7.488a1.071,1.071,0,0,0-1.07-1.07h-3.566a1.071,1.071,0,0,0-1.07,1.07Z" transform="translate(-165.54 -255.803)" fill="#fff"/>
  </g>
</svg>
