<svg xmlns="http://www.w3.org/2000/svg" width="27.229" height="25.525" viewBox="0 0 27.229 25.525">
  <g id="Home" transform="translate(0 -16.017)">
    <path id="Path_69" data-name="Path 69" d="M60.528,208.131H42.446A2.449,2.449,0,0,1,40,205.685V192.814a.851.851,0,1,1,1.7,0v12.871a.745.745,0,0,0,.745.745H60.528a.745.745,0,0,0,.745-.745V192.814a.851.851,0,1,1,1.7,0v12.871A2.449,2.449,0,0,1,60.528,208.131Z" transform="translate(-37.873 -166.589)" fill="#436eee"/>
    <path id="Path_70" data-name="Path 70" d="M26.378,29.2a.848.848,0,0,1-.6-.249L15.194,18.371a2.236,2.236,0,0,0-3.159,0L1.453,28.954a.851.851,0,0,1-1.2-1.2L10.832,17.168a3.94,3.94,0,0,1,5.565,0L26.98,27.75a.851.851,0,0,1-.6,1.453Z" transform="translate(0 0)" fill="#436eee"/>
    <path id="Path_71" data-name="Path 71" d="M183.658,299.045h-6.807a.851.851,0,0,1-.851-.851v-7.552a2.662,2.662,0,0,1,2.659-2.659h3.191a2.662,2.662,0,0,1,2.659,2.659v7.552A.851.851,0,0,1,183.658,299.045Zm-5.956-1.7h5.105v-6.7a.958.958,0,0,0-.957-.957h-3.191a.958.958,0,0,0-.957.957Z" transform="translate(-166.64 -257.502)" fill="#436eee"/>
  </g>
</svg>
