<svg xmlns="http://www.w3.org/2000/svg" width="23.382" height="29.586" viewBox="0 0 23.382 29.586">
  <g id="Profile" transform="translate(-47.85)">
    <g id="Group_521" data-name="Group 521" transform="translate(47.85)">
      <g id="Group_520" data-name="Group 520">
        <path id="Path_74" data-name="Path 74" d="M65.765,220.526a8.949,8.949,0,0,1-1.366,1.389,9.8,9.8,0,0,1,4.937,8.5c0,1.964-4.3,3.5-9.8,3.5s-9.8-1.538-9.8-3.5a9.8,9.8,0,0,1,4.937-8.5,8.952,8.952,0,0,1-1.366-1.389,11.693,11.693,0,0,0-5.467,9.892c0,1.26.69,3.017,3.978,4.227a23.168,23.168,0,0,0,7.713,1.171,23.168,23.168,0,0,0,7.713-1.171c3.287-1.21,3.978-2.967,3.978-4.227A11.693,11.693,0,0,0,65.765,220.526Z" transform="translate(-47.85 -206.229)" fill="#fff"/>
        <path id="Path_75" data-name="Path 75" d="M134.107,15.546c3.684,0,6.522-3.561,6.522-7.773S137.79,0,134.107,0s-6.522,3.561-6.522,7.773S130.424,15.546,134.107,15.546Zm0-13.65c2.551,0,4.626,2.636,4.626,5.877s-2.075,5.877-4.626,5.877-4.626-2.636-4.626-5.877S131.556,1.9,134.107,1.9Z" transform="translate(-122.416)" fill="#fff"/>
      </g>
    </g>
  </g>
</svg>
