<svg xmlns="http://www.w3.org/2000/svg" width="27.868" height="28.525" viewBox="0 0 27.868 28.525">
  <g id="Video" transform="translate(0 -6)">
    <path id="Path_72" data-name="Path 72" d="M34.218,26.832l-8.965-5.705A.815.815,0,0,0,24,21.815v11.41a.815.815,0,0,0,1.253.688l8.965-5.705a.816.816,0,0,0,0-1.376ZM25.63,31.741V23.3l6.632,4.221Z" transform="translate(-14.788 -7.257)" fill="#fff"/>
    <path id="Path_73" data-name="Path 73" d="M27.388,6H.48A.564.564,0,0,0,0,6.62V33.905a.564.564,0,0,0,.48.62H27.388a.564.564,0,0,0,.48-.62V6.62A.564.564,0,0,0,27.388,6ZM4.8,19.643H.961V14.062H4.8ZM.961,20.883H4.8v5.581H.961Zm4.8,6.2V7.24H22.1V33.285H5.766Zm21.141-7.441H23.063V14.062h3.844Zm-3.844,1.24h3.844v5.581H23.063ZM26.907,7.24v5.581H23.063V7.24ZM.961,7.24H4.8v5.581H.961Zm0,26.045V27.7H4.8v5.581Zm25.946,0H23.063V27.7h3.844Z" transform="translate(0)" fill="#fff"/>
  </g>
</svg>
