<svg id="coin" xmlns="http://www.w3.org/2000/svg" width="22.424" height="22.817" viewBox="0 0 22.424 22.817">
  <path id="Path_790" data-name="Path 790" d="M12.892,0a8.828,8.828,0,0,0-1.186.083A8.806,8.806,0,0,0,10.532,0,9.5,9.5,0,0,0,3.191,3.644a.375.375,0,0,0-.047.056A11.582,11.582,0,0,0,1.652,6.11a.444.444,0,0,0-.027.059A12.278,12.278,0,0,0,.933,8.1.394.394,0,0,0,.9,8.218a12.829,12.829,0,0,0-.4,3.191,12.651,12.651,0,0,0,.953,4.847.38.38,0,0,0,.018.046,11.721,11.721,0,0,0,1.366,2.417.385.385,0,0,0,.042.055,10.723,10.723,0,0,0,1.865,1.944.381.381,0,0,0,.068.055,9.165,9.165,0,0,0,5.72,2.045,8.807,8.807,0,0,0,1.174-.083,8.828,8.828,0,0,0,1.186.083c5.532,0,10.032-5.118,10.032-11.409S18.424,0,12.892,0ZM8.738,1.028q-.2.1-.386.212c-.071.041-.143.081-.213.124-.109.067-.216.138-.322.209H7.06a8.275,8.275,0,0,1,1.8-.613C8.819.982,8.78,1.007,8.738,1.028ZM4.772,18.1H3.362a10.873,10.873,0,0,1-.923-1.574h1.49c.062.139.125.277.192.413.029.059.059.116.089.175q.121.237.251.467c.032.057.063.115.1.172C4.626,17.867,4.7,17.982,4.772,18.1ZM2.258,6.688H3.763q-.1.258-.2.522c-.017.049-.034.1-.051.146-.057.169-.109.34-.159.512H1.821A11.37,11.37,0,0,1,2.258,6.688Zm-.971,4.721c0-.265.014-.526.031-.787H2.886c0,.006,0,.013,0,.019-.015.254-.025.509-.025.768,0,.132,0,.262.009.393H1.3C1.3,11.671,1.287,11.541,1.287,11.409Zm1.627,1.18c.015.166.034.33.055.494,0,.012,0,.024,0,.036.029.219.065.435.1.65H1.526c-.077-.386-.137-.779-.176-1.18Zm.244-3.934c-.01.046-.019.094-.028.14s-.022.1-.032.155c-.048.247-.09.5-.124.748,0,.012,0,.024,0,.036,0,.033-.007.067-.012.1H1.4A11.882,11.882,0,0,1,1.6,8.655Zm.094,5.9c.012.048.024.1.036.144,0,.017.009.035.013.053.065.24.138.475.216.708.017.049.034.1.051.146s.029.087.044.129H2.1a11.531,11.531,0,0,1-.387-1.18Zm1.3-9.487c-.033.056-.065.114-.1.172q-.13.23-.251.467c-.03.058-.06.116-.089.175l-.01.02H2.636A10.706,10.706,0,0,1,3.657,4.327H5.035c-.048.069-.1.137-.143.207Q4.718,4.8,4.557,5.069ZM5.705,2.36H6.792c-.1.085-.2.171-.29.26-.079.075-.156.152-.233.23s-.155.158-.231.238-.146.155-.216.234-.123.144-.184.217h-1.3A9.516,9.516,0,0,1,5.705,2.36ZM3.971,18.883h1.35c.044.058.089.116.134.173q.178.224.367.437c.07.08.144.157.216.234s.153.161.231.239c.031.031.061.065.093.1H5.18A9.745,9.745,0,0,1,3.971,18.883Zm4.89,2.973A8.4,8.4,0,0,1,6.316,20.85h.952c.05.039.1.076.153.113.081.061.163.122.246.179q.232.162.472.31c.07.043.142.083.213.124q.191.11.386.212C8.78,21.811,8.819,21.836,8.861,21.857Zm4.031.174a8.1,8.1,0,0,1-.926-.054l-.152-.021-.063-.009q-.2-.029-.4-.068l-.033-.007q-.2-.038-.387-.086l-.058-.015c-.119-.031-.238-.063-.355-.1l-.107-.035c-.1-.032-.2-.065-.3-.1-.08-.029-.159-.061-.238-.093-.054-.021-.109-.041-.162-.064a9.811,9.811,0,0,1-4.937-4.9c-.01-.02-.019-.042-.028-.063q-.086-.184-.166-.371c-.021-.05-.041-.1-.061-.151-.04-.1-.079-.2-.116-.295-.024-.064-.046-.129-.069-.193-.031-.087-.062-.175-.09-.264-.024-.072-.046-.146-.068-.218s-.05-.166-.074-.25-.043-.155-.063-.232-.042-.165-.061-.248-.037-.159-.054-.239-.035-.168-.051-.253-.031-.161-.045-.243-.028-.174-.041-.262-.024-.159-.034-.239-.022-.19-.031-.285c-.008-.074-.017-.148-.023-.223-.009-.109-.016-.22-.022-.33,0-.062-.009-.124-.011-.186-.007-.173-.011-.347-.011-.523s0-.35.011-.523c0-.062.008-.124.011-.186.006-.11.013-.221.022-.33.006-.075.015-.149.023-.223.01-.1.02-.19.031-.285s.022-.159.034-.239.026-.175.041-.262.029-.162.045-.243.033-.169.051-.253.035-.16.054-.239.04-.166.061-.248.041-.155.063-.233.048-.167.074-.25.045-.146.068-.218c.029-.089.06-.176.091-.264.023-.065.045-.129.069-.193.037-.1.076-.2.116-.295.02-.05.04-.1.061-.151q.08-.188.166-.371c.01-.021.018-.042.028-.063a9.813,9.813,0,0,1,4.937-4.9c.054-.022.108-.042.162-.064.079-.031.158-.064.238-.093.1-.036.2-.068.3-.1l.107-.035c.117-.036.236-.068.355-.1l.057-.015c.128-.032.257-.06.387-.086l.033-.007q.2-.039.4-.068l.063-.009L11.966.84a8.2,8.2,0,0,1,.926-.053c5.1,0,9.245,4.765,9.245,10.622S17.99,22.03,12.892,22.03Z" transform="translate(-0.5 0)" fill="#ffc34d"/>
  <path id="Path_791" data-name="Path 791" d="M12.954,27.206c0-.247.01-.5.029-.739A.393.393,0,0,0,12.2,26.4c-.021.263-.031.533-.031.8v.008a.39.39,0,0,0,.393.389A.4.4,0,0,0,12.954,27.206Z" transform="translate(-7.577 -15.797)" fill="#ffc34d"/>
  <path id="Path_792" data-name="Path 792" d="M48.774,21.384a.393.393,0,0,0,.381.3.406.406,0,0,0,.1-.012.394.394,0,0,0,.286-.478c-.066-.263-.144-.525-.231-.779a.393.393,0,1,0-.744.255C48.642,20.9,48.713,21.143,48.774,21.384Z" transform="translate(-29.641 -12.221)" fill="#ffc34d"/>
  <path id="Path_793" data-name="Path 793" d="M44.084,42.8c-.157.194-.324.379-.495.552a.393.393,0,1,0,.559.554c.189-.191.373-.4.546-.609a.393.393,0,0,0-.611-.5Z" transform="translate(-26.569 -25.871)" fill="#ffc34d"/>
  <path id="Path_794" data-name="Path 794" d="M13.661,34.208a.393.393,0,0,0-.764.19c.065.262.142.525.229.78a.394.394,0,0,0,.372.267.4.4,0,0,0,.127-.021.394.394,0,0,0,.245-.5C13.792,34.691,13.721,34.45,13.661,34.208Z" transform="translate(-8.013 -20.57)" fill="#ffc34d"/>
  <path id="Path_795" data-name="Path 795" d="M39.879,8.751a7.389,7.389,0,0,0-.713-.41.393.393,0,0,0-.354.7,6.685,6.685,0,0,1,.638.367.393.393,0,0,0,.43-.659Z" transform="translate(-23.609 -5.034)" fill="#ffc34d"/>
  <path id="Path_796" data-name="Path 796" d="M37.826,47.686a6.506,6.506,0,0,1-.671.3.393.393,0,1,0,.278.736,7.265,7.265,0,0,0,.753-.334.393.393,0,1,0-.36-.7Z" transform="translate(-22.58 -28.9)" fill="#ffc34d"/>
  <path id="Path_797" data-name="Path 797" d="M45.9,14.047c-.153-.226-.317-.446-.489-.654a.393.393,0,1,0-.607.5c.156.189.305.389.445.595a.394.394,0,0,0,.652-.441Z" transform="translate(-27.321 -8.037)" fill="#ffc34d"/>
  <path id="Path_798" data-name="Path 798" d="M50.182,27.968a.4.4,0,0,0-.393.406c0,.241-.009.485-.028.723a.393.393,0,0,0,.362.423h.031a.393.393,0,0,0,.392-.363c.02-.259.03-.522.03-.784v-.026A.382.382,0,0,0,50.182,27.968Z" transform="translate(-30.38 -16.965)" fill="#ffc34d"/>
  <path id="Path_799" data-name="Path 799" d="M48.669,35.75a.394.394,0,0,0-.5.247c-.079.236-.17.47-.268.7a.393.393,0,0,0,.721.314c.107-.247.206-.5.292-.759A.393.393,0,0,0,48.669,35.75Z" transform="translate(-29.234 -21.674)" fill="#ffc34d"/>
  <path id="Path_800" data-name="Path 800" d="M32.187,6.523a6.99,6.99,0,0,0-.806-.047h-.017a.387.387,0,0,0-.385.393.4.4,0,0,0,.4.393A6.219,6.219,0,0,1,32.1,7.3a.361.361,0,0,0,.046,0,.393.393,0,0,0,.044-.784Z" transform="translate(-18.989 -3.928)" fill="#ffc34d"/>
  <path id="Path_801" data-name="Path 801" d="M16.793,41.3a.393.393,0,0,0-.652.44c.153.226.317.447.487.655a.394.394,0,0,0,.609-.5C17.082,41.707,16.932,41.506,16.793,41.3Z" transform="translate(-9.947 -24.947)" fill="#ffc34d"/>
  <path id="Path_802" data-name="Path 802" d="M14.263,18.414a.394.394,0,0,0-.518.2c-.108.247-.207.5-.294.758a.393.393,0,1,0,.745.253c.079-.235.17-.469.269-.7A.392.392,0,0,0,14.263,18.414Z" transform="translate(-8.343 -11.15)" fill="#ffc34d"/>
  <path id="Path_803" data-name="Path 803" d="M30.194,49.454a6.184,6.184,0,0,1-.731-.043.394.394,0,1,0-.093.782,7.018,7.018,0,0,0,.825.049h.034a.379.379,0,0,0,.376-.393A.409.409,0,0,0,30.194,49.454Z" transform="translate(-17.802 -29.971)" fill="#ffc34d"/>
  <path id="Path_804" data-name="Path 804" d="M17.865,11.961c-.189.191-.374.395-.547.608a.394.394,0,0,0,.609.5c.158-.193.325-.378.5-.551a.394.394,0,1,0-.558-.555Z" transform="translate(-10.648 -7.185)" fill="#ffc34d"/>
  <path id="Path_805" data-name="Path 805" d="M24.3,7.563a7.311,7.311,0,0,0-.754.332.393.393,0,1,0,.357.7,6.553,6.553,0,0,1,.672-.3.393.393,0,0,0-.275-.737Z" transform="translate(-14.347 -4.573)" fill="#ffc34d"/>
  <path id="Path_806" data-name="Path 806" d="M22.9,47.123a6.717,6.717,0,0,1-.637-.369.393.393,0,1,0-.431.658,7.5,7.5,0,0,0,.712.412.393.393,0,1,0,.356-.7Z" transform="translate(-13.331 -28.322)" fill="#ffc34d"/>
</svg>
