<svg id="green-coin" xmlns="http://www.w3.org/2000/svg" width="15.752" height="15" viewBox="0 0 15.752 15">
  <g id="Group_17" data-name="Group 17">
    <g id="Group_16" data-name="Group 16">
      <path id="Path_22" data-name="Path 22" d="M7.5,0h0a7.5,7.5,0,1,0,0,15h0a7.5,7.5,0,0,0,0-15Z" transform="translate(0.376)" fill="rgba(142,232,63,0.28)"/>
      <path id="Path_23" data-name="Path 23" d="M266.309,7.5c0,4.148-4.6,7.5-10.3,7.5V0C261.706,0,266.309,3.351,266.309,7.5Z" transform="translate(-250.933)" fill="rgba(142,232,63,0.28)"/>
      <g id="Group_15" data-name="Group 15" transform="translate(0 1.227)">
        <path id="Path_24" data-name="Path 24" d="M31.7,112.458H30.49a9.014,9.014,0,0,1,2.228-5.388l.861.861A7.85,7.85,0,0,0,31.7,112.458Z" transform="translate(-30.49 -105.341)" fill="rgba(142,232,63,0.28)"/>
        <path id="Path_25" data-name="Path 25" d="M33.579,275.527l-.861.861A9.01,9.01,0,0,1,30.49,271H31.7A7.85,7.85,0,0,0,33.579,275.527Z" transform="translate(-30.49 -265.57)" fill="rgba(142,232,63,0.28)"/>
        <path id="Path_26" data-name="Path 26" d="M107.931,404.73a7.851,7.851,0,0,0,4.527,1.879v1.21a9.013,9.013,0,0,1-5.388-2.228Z" transform="translate(-103.989 -395.272)" fill="rgba(142,232,63,0.28)"/>
        <path id="Path_27" data-name="Path 27" d="M275.527,404.73l.861.861A9.009,9.009,0,0,1,271,407.819v-1.21A7.851,7.851,0,0,0,275.527,404.73Z" transform="translate(-261.324 -395.272)" fill="rgba(142,232,63,0.28)"/>
        <path id="Path_28" data-name="Path 28" d="M107.07,32.718a9.01,9.01,0,0,1,5.388-2.228V31.7a7.85,7.85,0,0,0-4.527,1.879Z" transform="translate(-103.989 -30.49)" fill="rgba(142,232,63,0.28)"/>
        <path id="Path_29" data-name="Path 29" d="M276.388,32.718l-.861.861A7.85,7.85,0,0,0,271,31.7V30.49A9.013,9.013,0,0,1,276.388,32.718Z" transform="translate(-261.324 -30.49)" fill="rgba(142,232,63,0.28)"/>
        <path id="Path_30" data-name="Path 30" d="M103.357,93.879c0,2.139-3,3.879-6.678,3.879h0C93,97.758,90,96.018,90,93.879S93,90,96.678,90h0C100.361,90,103.357,91.74,103.357,93.879Z" transform="translate(-87.606 -87.606)" fill="rgba(142,232,63,0.28)"/>
      </g>
      <path id="Path_31" data-name="Path 31" d="M262.688,93.879c0,2.139-3,3.879-6.678,3.879V90C259.692,90,262.688,91.74,262.688,93.879Z" transform="translate(-249.477 -86.379)" fill="rgba(142,232,63,0.28)"/>
      <path id="Path_32" data-name="Path 32" d="M260.828,199.621a1.635,1.635,0,0,0-.588-1.207,1.636,1.636,0,0,0,.588-1.207A1.207,1.207,0,0,0,259.621,196c-1.207,0-3.621,2.414-3.621,2.414s2.414,2.414,3.621,2.414A1.207,1.207,0,0,0,260.828,199.621Z" transform="translate(-248.981 -190.914)" fill="rgba(142,232,63,0.28)"/>
      <path id="Path_33" data-name="Path 33" d="M136,197.207a1.636,1.636,0,0,0,.588,1.207,1.635,1.635,0,0,0-.588,1.207,1.207,1.207,0,0,0,1.207,1.207c1.207,0,3.621-2.414,3.621-2.414S138.414,196,137.207,196A1.207,1.207,0,0,0,136,197.207Z" transform="translate(-132.095 -190.914)" fill="rgba(142,232,63,0.28)"/>
      <path id="Path_34" data-name="Path 34" d="M200.828,259.621a1.207,1.207,0,0,1-1.207,1.207,1.636,1.636,0,0,1-1.207-.588h0a1.636,1.636,0,0,1-1.207.588A1.207,1.207,0,0,1,196,259.621c0-1.207,2.414-3.621,2.414-3.621h0C198.451,256.038,200.828,258.423,200.828,259.621Z" transform="translate(-190.538 -249.357)" fill="rgba(142,232,63,0.28)"/>
      <path id="Path_35" data-name="Path 35" d="M258.423,259.63a1.207,1.207,0,0,1-1.207,1.207,1.637,1.637,0,0,1-1.206-.588v-4.24C256.047,256.047,258.423,258.433,258.423,259.63Z" transform="translate(-248.506 -249.367)" fill="rgba(142,232,63,0.28)"/>
      <path id="Path_36" data-name="Path 36" d="M200.828,137.207c0,1.2-2.376,3.583-2.413,3.62h0S196,138.414,196,137.207A1.207,1.207,0,0,1,197.207,136a1.636,1.636,0,0,1,1.207.588h0a1.637,1.637,0,0,1,1.207-.588A1.207,1.207,0,0,1,200.828,137.207Z" transform="translate(-190.538 -132.471)" fill="rgba(142,232,63,0.28)"/>
      <path id="Path_37" data-name="Path 37" d="M258.423,137.207c0,1.2-2.376,3.583-2.413,3.62v-4.24a1.637,1.637,0,0,1,1.206-.588A1.207,1.207,0,0,1,258.423,137.207Z" transform="translate(-248.506 -132.471)" fill="rgba(142,232,63,0.28)"/>
      <path id="Path_38" data-name="Path 38" d="M407.819,112.458h-1.21a7.851,7.851,0,0,0-1.879-4.527l.861-.861A9.009,9.009,0,0,1,407.819,112.458Z" transform="translate(-393.67 -104.348)" fill="rgba(142,232,63,0.28)"/>
      <path id="Path_39" data-name="Path 39" d="M406.609,271h1.21a9.013,9.013,0,0,1-2.228,5.388l-.861-.861A7.85,7.85,0,0,0,406.609,271Z" transform="translate(-393.67 -264.11)" fill="rgba(142,232,63,0.28)"/>
    </g>
  </g>
</svg>
