<svg id="members" xmlns="http://www.w3.org/2000/svg" width="28.631" height="18.267" viewBox="0 0 28.631 18.267">
  <path id="Path_165" data-name="Path 165" d="M648.825,386s2.81.156,3.747,2.186c0,0,.625,4.528-.624,6.089,0,0-1.4.625-6.089.625-4.528,0-5.777-.312-6.089-.625-.4-.4-.937-2.03-.625-5.777.117-1.409,2.03-2.342,3.747-2.5a4.572,4.572,0,0,0,5.933,0Z" transform="translate(-631.488 -376.632)" fill="#21d827"/>
  <circle id="Ellipse_2" data-name="Ellipse 2" cx="4.606" cy="4.606" r="4.606" transform="translate(9.796)" fill="#21d827"/>
  <circle id="Ellipse_3" data-name="Ellipse 3" cx="3.418" cy="3.418" r="3.418" transform="translate(20.14 3.144)" fill="#21d827"/>
  <path id="Path_166" data-name="Path 166" d="M734.164,392.284c-.7-1.506-2.781-1.622-2.781-1.622a3.392,3.392,0,0,1-4.4,0l-.05.006c.545.323.64.786.948,1.452a17.141,17.141,0,0,1-.312,5.152c.32.006,1.236-.007,1.616-.007,3.477,0,4.518-.463,4.518-.463C734.627,395.644,734.164,392.284,734.164,392.284Z" transform="translate(-705.648 -380.566)" fill="#21d827"/>
  <circle id="Ellipse_4" data-name="Ellipse 4" cx="3.418" cy="3.418" r="3.418" transform="translate(1.657 3.144)" fill="#21d827"/>
  <path id="Path_167" data-name="Path 167" d="M590.726,392.284c.7-1.506,2.78-1.622,2.78-1.622a3.393,3.393,0,0,0,4.4,0l.05.006c-.545.323-.64.786-.948,1.452a17.141,17.141,0,0,0,.312,5.152c-.32.006-1.236-.007-1.616-.007-3.477,0-4.518-.463-4.518-.463C590.262,395.644,590.726,392.284,590.726,392.284Z" transform="translate(-590.61 -380.566)" fill="#21d827"/>
</svg>
