<svg id="Layer_1" data-name="Layer 1" xmlns="http://www.w3.org/2000/svg" xmlns:xlink="http://www.w3.org/1999/xlink" viewBox="0 0 514 514"><defs><style>.cls-1{fill:url(#linear-gradient);}.cls-2{fill:url(#linear-gradient-2);}.cls-3{fill:url(#linear-gradient-3);}.cls-4{fill:url(#linear-gradient-4);}</style><linearGradient id="linear-gradient" x1="511.99" y1="256.64" x2="-2.01" y2="257.37" gradientUnits="userSpaceOnUse"><stop offset="0.01" stop-color="#719f33"/><stop offset="0.08" stop-color="#71a133"/><stop offset="0.58" stop-color="#71b033"/><stop offset="1" stop-color="#71b533"/></linearGradient><linearGradient id="linear-gradient-2" x1="4" y1="257" x2="510" y2="257" gradientUnits="userSpaceOnUse"><stop offset="0" stop-color="#408e33"/><stop offset="0.06" stop-color="#459233"/><stop offset="0.41" stop-color="#5da533"/><stop offset="0.73" stop-color="#6cb133"/><stop offset="1" stop-color="#71b533"/></linearGradient><linearGradient id="linear-gradient-3" x1="22" y1="257" x2="492" y2="257" gradientUnits="userSpaceOnUse"><stop offset="0" stop-color="#71b533"/><stop offset="0.06" stop-color="#71b333"/><stop offset="0.57" stop-color="#71a433"/><stop offset="1" stop-color="#719f33"/></linearGradient><linearGradient id="linear-gradient-4" x1="25" y1="257" x2="489" y2="257" gradientUnits="userSpaceOnUse"><stop offset="0" stop-color="#718d33"/><stop offset="0.34" stop-color="#71a133"/><stop offset="0.7" stop-color="#71b033"/><stop offset="1" stop-color="#71b533"/></linearGradient></defs><title>total-coin-icon</title><circle class="cls-1" cx="257" cy="257" r="257"/><circle class="cls-2" cx="257" cy="257" r="253"/><circle class="cls-3" cx="257" cy="257" r="235"/><circle class="cls-4" cx="257" cy="257" r="232"/><path d="M399.6,517.8c-119.1.2-215.6-95.6-218-213.4-2.5-124,98.6-224.8,221.9-222.6,117.1,2,211.7,96.5,214.2,213.3C620.2,418.8,520.3,518.2,399.6,517.8ZM390.3,85.3l-10.9.7c-1.3.1-1.6.6-1.6,1.8.1,6.1,0,12.1,0,18.2a2.4,2.4,0,0,0,1.1,2.2,4.8,4.8,0,0,1,1.6,5.7,5,5,0,0,1-5,3.1,4.8,4.8,0,0,1-4.3-3.7,4.7,4.7,0,0,1,2.1-5.4,1.8,1.8,0,0,0,1.1-1.8V87.9c0-.4.1-.8-.3-1.2H373c-3.2.5-6.4,1.1-9.7,1.5-1.6.1-1.9.8-1.9,2.2.1,8.8.1,17.5.1,26.3a3.2,3.2,0,0,0,1.1,2.7c4.5,4.4,9,9,13.5,13.5a3.3,3.3,0,0,1,1.2,2.8v39.8a3.9,3.9,0,0,0,1.2,3l14,13.9a4.1,4.1,0,0,1,1.4,3.4V345.3c0,1.3.1,2.2,1.5,2.9a6,6,0,0,1,2.7,7.1,6.3,6.3,0,0,1-6,4.5,6.4,6.4,0,0,1-6-4.8,6.3,6.3,0,0,1,3.2-7,2,2,0,0,0,1.2-2V196.7a3.4,3.4,0,0,0-.9-2.4c-4.9-4.7-9.6-9.6-14.5-14.3a4.1,4.1,0,0,1-1.2-3.1V137.2a3.3,3.3,0,0,0-1.2-2.9c-4.6-4.5-9-9.1-13.6-13.5a3.5,3.5,0,0,1-1.1-2.7c.1-9,0-18,0-26.9a3.1,3.1,0,0,0-.2-1.9l-1.3.2c-4.6.9-9,2-13.5,3.2-1.4.3-1.7.9-1.7,2.3V242.9a3,3,0,0,0,1,2.5c5.8,5.8,11.6,11.7,17.5,17.5a5,5,0,0,1,1.7,4.1V427.5a2.6,2.6,0,0,0,1.5,2.8,6.2,6.2,0,0,1-3.6,11.4,6.1,6.1,0,0,1-5.8-4.8,6,6,0,0,1,3.3-6.9,2,2,0,0,0,1.2-2.1q-.2-80.2,0-160.5a3.3,3.3,0,0,0-1.1-2.5l-17.4-17.3a5.1,5.1,0,0,1-1.7-4V96.7a4,4,0,0,0-.3-2.4l-1.9.5-11.5,4a2,2,0,0,0-1.6,2.3c.1,26.7,0,53.3,0,80a2.2,2.2,0,0,0,1.4,2.4,6,6,0,0,1,3,6.9,6.4,6.4,0,0,1-6.1,4.7,6.2,6.2,0,0,1-6-4.6,6,6,0,0,1,3-7.1,2.2,2.2,0,0,0,1.4-2.4V102.7c0-.6-.1-1.2-.1-2-4.6,1.8-8.9,3.9-13.2,5.9a2.1,2.1,0,0,0-1.3,2.2v89.5a3,3,0,0,0,1,2.3l15.5,15.5a4.5,4.5,0,0,1,1.6,3.6q-.2,61.5-.1,123.1a2.6,2.6,0,0,0,1.2,2.6,4.7,4.7,0,0,1,1.6,5.6,5,5,0,0,1-9.4-.5,4.7,4.7,0,0,1,2.1-5.3,2.3,2.3,0,0,0,1.2-2.3q-.1-61.2,0-122.4a3.1,3.1,0,0,0-1.1-2.5c-5.2-5.2-10.3-10.4-15.6-15.5a4.5,4.5,0,0,1-1.4-3.3q.1-43.9.1-88.1a2.5,2.5,0,0,0-.4-2c-3.8,1.9-7.4,4-11.1,6.2-.7.4-.5,1.1-.5,1.6V132a2.3,2.3,0,0,0,1.1,2.1,4.7,4.7,0,0,1,1.9,5.5,4.7,4.7,0,0,1-4.7,3.4,5,5,0,0,1-4.7-3.5,4.8,4.8,0,0,1,2-5.5,2,2,0,0,0,1.1-1.9c-.1-4.3-.1-8.7-.1-13,0-.4.2-.8-.5-1.1q-5.5,3.4-11.1,7.5c-.6.4-.5,1.1-.5,1.7,0,2.7.1,5.5,0,8.3a3.9,3.9,0,0,0,1.2,3.1c4.2,4.1,8.3,8.3,12.6,12.4a4.4,4.4,0,0,1,1.3,3.3v94.5a3,3,0,0,0,.9,2.4c4.2,4.1,8.3,8.3,12.5,12.5a1.8,1.8,0,0,0,2.2.5,6.1,6.1,0,0,1,7.1,2.9,6.2,6.2,0,0,1-8.8,8.3,6,6,0,0,1-2.5-7.2,1.8,1.8,0,0,0-.5-2.3l-13-12.9a4.2,4.2,0,0,1-1.4-3.3q.2-47.1.1-94.2a3.9,3.9,0,0,0-1.2-3c-3.7-3.6-7.2-7.4-11-10.8-2.2-2-3.3-4.1-2.9-7.1s0-3.9,0-6.2c-4.1,3-7.8,6.1-11.4,9.1a2.2,2.2,0,0,0-.6,2c0,23.6.1,47.3,0,70.9a2.2,2.2,0,0,0,1.5,2.4,6,6,0,0,1,2.8,7,6.3,6.3,0,0,1-6,4.6,6.5,6.5,0,0,1-6.1-4.8,6.2,6.2,0,0,1,3.1-6.9c1.2-.5,1.4-1.2,1.4-2.4V143c0-.5.2-1-.2-1.5s-.8.5-1.2.8c-3.6,3.3-7.1,6.8-10.5,10.4a4.4,4.4,0,0,0-1.4,3.4c.1,17.6,0,35.3.1,52.9a3.6,3.6,0,0,1-1.2,2.8c-4.5,4.4-9,8.9-13.4,13.4a2.2,2.2,0,0,0-.9,1.9v83.2a2.4,2.4,0,0,0,.8,1.9c3.5,3.5,7,6.9,10.4,10.4a1.9,1.9,0,0,0,2.2.7,4.8,4.8,0,0,1,5.3,2.5,4.9,4.9,0,0,1-6.6,6.7,4.8,4.8,0,0,1-2.5-5.3,2.4,2.4,0,0,0-.8-2.3l-11.1-11a3.1,3.1,0,0,1-1.1-2.6V226.4a3.9,3.9,0,0,1,1.3-3.1c4.4-4.3,8.6-8.7,13-12.9a3.7,3.7,0,0,0,1.2-3V159.5c0-.4.2-.8-.2-1.1l-.4.2c-3.9,4.4-7.6,9-11.1,13.7a3,3,0,0,0-.4,1.8v26.6a1.7,1.7,0,0,0,1.1,1.8,6.1,6.1,0,0,1,3.5,6.8,6.4,6.4,0,0,1-6.1,5,6.2,6.2,0,0,1-3-11.7,1.9,1.9,0,0,0,1.1-2V178.3c-.8.2-1,.8-1.3,1.2-4.2,6.3-8.1,12.8-11.7,19.4a8.2,8.2,0,0,0-1,4v59.9a4,4,0,0,1-1.4,3.3l-9.9,9.8a2,2,0,0,0-.6,2.1,4.8,4.8,0,0,1-2.6,5.4,5,5,0,0,1-5.8-1,5.2,5.2,0,0,1-.8-5.7,4.9,4.9,0,0,1,5.4-2.5,2,2,0,0,0,2.1-.6l9.4-9.5a2.4,2.4,0,0,0,.9-2.1c-.1-17.5-.1-35-.1-52.5,0-.4.3-.8-.4-1.1-20,43.5-25.1,88.7-15.9,135.5h.5v-1.6c0-11.1-.1-22.2,0-33.2a2.9,2.9,0,0,0-1.4-2.8,4.7,4.7,0,0,1-.8-7.1,4.9,4.9,0,0,1,7.2-.3,4.8,4.8,0,0,1-.5,7.3,2.7,2.7,0,0,0-1.2,2.6v48.4a13.4,13.4,0,0,0,.5,3.5,239.6,239.6,0,0,0,9.6,26.1l2.1,4.4h.3v-1.6c0-12.9,0-25.8.1-38.7a2.2,2.2,0,0,0-1.4-2.3,6,6,0,0,1-3.1-7,6.2,6.2,0,0,1,6-4.6,6.2,6.2,0,0,1,3.1,11.6,2.1,2.1,0,0,0-1.3,2.3v46.3a6.1,6.1,0,0,0,.8,3.2c2.9,5.5,6.1,10.8,9.4,16l2,3a9.5,9.5,0,0,0,.1-1.4V339.8a3.1,3.1,0,0,0-1-2.4l-13.6-13.5a3.1,3.1,0,0,1-1.1-2.6c.1-10.1,0-20.1.1-30.2a1.9,1.9,0,0,0-1.3-2.1,6.2,6.2,0,1,1,8.9-7,6.1,6.1,0,0,1-3,6.9,2.2,2.2,0,0,0-1.3,2.2v28.8a3.1,3.1,0,0,0,1,2.4l13.3,13.3a4.2,4.2,0,0,1,1.4,3.4v83.2a5.8,5.8,0,0,0,1.3,4c2.6,3.2,5,6.5,7.5,9.6s3.5,4.2,5.3,6.3a1.1,1.1,0,0,0,.4-1.1V354.6a2,2,0,0,0-1.1-1.9,4.7,4.7,0,0,1-2.1-5.4,4.9,4.9,0,0,1,4.6-3.6,4.8,4.8,0,0,1,4.8,3.4,4.7,4.7,0,0,1-1.8,5.5,2.4,2.4,0,0,0-1.1,2.2v90a3.2,3.2,0,0,0,.9,2.4c3.3,3.3,6.5,6.6,9.9,9.7.5.5.8,1.1,1.6,1.2s.2-1.2.2-1.8V349.9a3.6,3.6,0,0,1,1.1-2.8l12.8-12.7a4.1,4.1,0,0,0,1.2-3V290.6a3.4,3.4,0,0,1,1-2.7c3.7-3.6,7.3-7.3,10.9-10.9a1.9,1.9,0,0,0,.7-2,4.8,4.8,0,0,1,2.6-5.3,5.2,5.2,0,0,1,5.8,1,5.1,5.1,0,0,1,.7,5.8,4.7,4.7,0,0,1-5.3,2.4,2.1,2.1,0,0,0-2.2.7L275,289a4.4,4.4,0,0,0-1.4,3.4c.1,13.6.1,27.2.1,40.7a3.1,3.1,0,0,1-1,2.4l-13.2,13.1a3.2,3.2,0,0,0-1,2.2V460.3a2.6,2.6,0,0,0,1,2.2l9.8,7.9c.3.2.6.7,1.2.4v-.6q0-42,.1-83.9c0-1.2-.6-1.5-1.4-2a6,6,0,0,1-3.2-6.8,6.2,6.2,0,0,1,12-.5,5.9,5.9,0,0,1-2.6,7.1,2.8,2.8,0,0,0-1.5,2.9c0,27.2.1,54.4-.1,81.5,0,4,.8,6.6,4.4,8.4s4.4,2.9,6.9,4.5V467.2c0-.7-.4-.8-.8-1.1a4.9,4.9,0,0,1-2.3-5.6,4.7,4.7,0,0,1,4.6-3.5,4.8,4.8,0,0,1,2.8,8.9,2,2,0,0,0-.9,2,97.3,97.3,0,0,1-.1,10.8c-.4,3.7.9,5.8,4.2,7.3s6.2,3.5,9.7,5.1c0-.5.1-.7.1-1,0-7.6-.1-15.2,0-22.9a2.6,2.6,0,0,0-1-2l-15-14.9A4.2,4.2,0,0,1,285,447c.1-23.1,0-46.2.1-69.3a3.5,3.5,0,0,0-1-2.7l-8.8-8.7a1.7,1.7,0,0,0-1.9-.6,4.7,4.7,0,0,1-5.5-2.2,4.8,4.8,0,0,1,.6-5.8,4.6,4.6,0,0,1,5.5-1.2,4.5,4.5,0,0,1,2.9,5.2,2.3,2.3,0,0,0,.9,2.3c3.1,3.1,6.2,6.3,9.4,9.3a3.9,3.9,0,0,1,1.2,3.1v69.2a3.9,3.9,0,0,0,1.3,3.2l14.9,14.8a3.6,3.6,0,0,1,1.1,2.9v20c.1,2.1-.8,4.7.4,6.2s3.6,2.1,5.6,3l6.6,2.9a9.2,9.2,0,0,0,.1-1.5v-43a2.6,2.6,0,0,0-1-2.2l-15.3-15.3a4.6,4.6,0,0,1-1.5-3.6c.1-39.8,0-79.7.1-119.6a3.3,3.3,0,0,0-1.2-2.8c-3.6-3.6-7.3-7.2-10.9-10.9a2.1,2.1,0,0,0-2.6-.7,6.1,6.1,0,0,1-6.9-3,6.2,6.2,0,0,1,8.7-8.3,6.1,6.1,0,0,1,2.6,7,2.3,2.3,0,0,0,.7,2.8l11.7,11.6a4,4,0,0,1,1.3,3.1q-.2,59.7-.1,119.5a4.8,4.8,0,0,0,1.5,3.6c5.1,4.9,10,9.9,14.9,14.8a4.2,4.2,0,0,1,1.5,3.4c-.1,14.9,0,29.7-.1,44.6a2.2,2.2,0,0,0,1.8,2.5c2.3.7,4.4,1.7,6.7,2.4a89.5,89.5,0,0,0,10.4,3.2c0-.6.1-1,.1-1.5V395.1a2.9,2.9,0,0,0-.9-2.2l-18.6-18.6a2.1,2.1,0,0,0-2.2-.6A6,6,0,0,1,312,371a6.5,6.5,0,0,1,.9-7.6,6.3,6.3,0,0,1,7.6-1,6,6,0,0,1,2.7,7.2,2.3,2.3,0,0,0,.7,2.5l19,18.9a4,4,0,0,1,1.4,3.2q-.2,37.7-.1,75.3c0,12,.1,23.9,0,35.9a2,2,0,0,0,1.9,2.4l8.2,1.8a9.3,9.3,0,0,0,3.7.6v-1.9c0-15.7,0-31.4.1-47.1a2.6,2.6,0,0,0-1.4-2.6,4.7,4.7,0,0,1-.8-7.1,5,5,0,0,1,7.3-.3c1.9,2.1,1.8,5.6-.5,7.2a3,3,0,0,0-1.2,2.9v46.1c0,3.7,0,3.7,3.7,4.3h.5l8.6,1.2V454.7a3.3,3.3,0,0,1,1.1-2.7c4.3-4.2,8.5-8.6,12.9-12.8a3.3,3.3,0,0,0,1-2.5V381.1a3.3,3.3,0,0,0-1.2-2.8L375.8,366a3.8,3.8,0,0,1-1.3-3.1q0-71.5.1-142.9a4,4,0,0,0-1.4-3.2c-4.2-4.1-8.2-8.3-12.4-12.3a3.9,3.9,0,0,1-1.2-3V147.2l-1-.5a6.3,6.3,0,0,1-3.4-7.1,6.1,6.1,0,0,1,6-4.8,6.2,6.2,0,0,1,6.1,4.7,6.1,6.1,0,0,1-3.3,7.1c-1,.5-1,1.2-1,2.1v51.5a3.3,3.3,0,0,0,1.1,2.7c4.1,4,8.1,8.2,12.3,12.2a4.8,4.8,0,0,1,1.5,3.8V361.4a4.1,4.1,0,0,0,1.3,3.3c4.2,4,8.2,8.2,12.4,12.3a3.1,3.1,0,0,1,1.1,2.6v58.5a3.3,3.3,0,0,1-1,2.5l-12.8,12.7a4.1,4.1,0,0,0-1.2,3c.1,18.4,0,36.8,0,55.2v1c.1.5.3.9.8.9,3.5.4,7,.7,10.7.8,0-.5.1-.9.1-1.2,0-14.6-.1-29.2,0-43.9,0-1.1-.6-1.4-1.4-1.8a6.2,6.2,0,0,1-3.1-7,6.2,6.2,0,1,1,9.1,6.9,2,2,0,0,0-1.2,2v43.7c0,1.2.5,1.5,1.5,1.5,3.7,0,7.4.1,11.1,0a6,6,0,0,0,3.2-.4V368.6a3.9,3.9,0,0,1,1.3-3.2l15.6-15.6a3.3,3.3,0,0,0,1.1-2.5c-.1-8,0-16.1,0-24.2a2.3,2.3,0,0,0-1-2.1,4.7,4.7,0,0,1-1.9-5.5,4.9,4.9,0,0,1,9.4.2,4.7,4.7,0,0,1-2,5.4,2.2,2.2,0,0,0-1.2,2.2c0,8.2,0,16.4.1,24.6a5.5,5.5,0,0,1-1.6,4c-5.2,5-10.2,10.1-15.3,15.1a3.2,3.2,0,0,0-1.1,2.7V512.2c0,.6-.2,1.3.3,1.9,4.1-.1,8.3-.7,12.4-1,1.5-.1,1.9-.6,1.9-2V385.2a2.3,2.3,0,0,0-1.3-2.3,6.1,6.1,0,0,1-3-6.9,6.3,6.3,0,0,1,12.2.2,6,6,0,0,1-3.2,6.8,2.4,2.4,0,0,0-1.4,2.5V510.4a3.3,3.3,0,0,0,.3,1.9,102.5,102.5,0,0,0,11.9-2.1V475.4a3.2,3.2,0,0,1,1-2.5L457.9,458a2.9,2.9,0,0,0,1-2.3V275a3.1,3.1,0,0,0-1.1-2.5l-13.9-13.8a4,4,0,0,1-1.3-3.1V179.3l-.9-.5a5,5,0,0,1-2.2-5.6,4.9,4.9,0,1,1,7.4,5.4c-1,.6-.9,1.4-.9,2.3,0,24.5,0,48.9-.1,73.4A3.5,3.5,0,0,0,447,257c4.8,4.6,9.5,9.4,14.2,14.1a3,3,0,0,1,1,2.5V457a3.6,3.6,0,0,1-1.2,2.8l-14.5,14.4a3.5,3.5,0,0,0-1.1,2.7v30.8c0,.6-.2,1.1.3,1.8,3.9-.8,7.8-1.9,11.6-2.8,1.3-.3,1.6-.9,1.6-2.1V482.9a2,2,0,0,0-1.1-2,4.9,4.9,0,0,1,2.6-9,4.9,4.9,0,0,1,4.8,3.4,4.7,4.7,0,0,1-1.9,5.5,2.4,2.4,0,0,0-1.1,2.3v20.3c0,.5-.2,1.1.4,1.7,3.4-.9,6.6-2.3,9.9-3.3a2.2,2.2,0,0,0,1.8-2.5q-.2-37.8-.1-75.6a4.1,4.1,0,0,1,1.3-3.3c3.9-3.7,7.7-7.6,11.6-11.4a3.7,3.7,0,0,0,1.1-2.8V341.9a2.1,2.1,0,0,0-1.2-2.3,4.7,4.7,0,0,1-2-5.3,4.8,4.8,0,0,1,4.4-3.6,4.8,4.8,0,0,1,4.9,3,4.6,4.6,0,0,1-1.4,5.6,3.1,3.1,0,0,0-1.3,2.9v65.2a3.5,3.5,0,0,1-1.2,3L478.8,422a3.5,3.5,0,0,0-1.2,2.9v72.9c0,.6-.2,1.2.2,1.8s.9-.1,1.3-.3c4-1.6,8-3.4,11.9-5.2a2.4,2.4,0,0,0,1.7-2.6V443.8a3.7,3.7,0,0,1,1.1-2.8c3.5-3.3,6.8-6.8,10.2-10.1a3.2,3.2,0,0,0,1.1-2.5V331.6a3.3,3.3,0,0,0-1.1-2.5l-13-12.9a3.7,3.7,0,0,1-1.1-2.8v-41a3,3,0,0,0-.9-2.4l-10.1-10.1a1.7,1.7,0,0,0-1.9-.6,4.8,4.8,0,0,1-5.5-2.3,4.9,4.9,0,0,1,.7-5.8,4.9,4.9,0,0,1,5.7-1.1,4.8,4.8,0,0,1,2.7,5.4,1.9,1.9,0,0,0,.7,2l11,11a2.8,2.8,0,0,1,1,2.2c0,13.7,0,27.5-.1,41.2a4.2,4.2,0,0,0,1.3,3l12.9,12.7a3.1,3.1,0,0,1,1,2.4V430a2.9,2.9,0,0,1-1,2.3c-3.3,3.4-6.7,6.7-10.1,10.1a3.7,3.7,0,0,0-1.3,3.1c.1,14.6,0,29.3.1,44a2.6,2.6,0,0,0,.4,2c2.6-1.5,5.3-3,8.1-4.3a3.6,3.6,0,0,0,2.2-3.7c-.2-9.3-.1-18.6-.1-27.9a3,3,0,0,1,.9-2.5L522.8,438a3.7,3.7,0,0,0,1.3-2.9V366.8a2.3,2.3,0,0,0-1.4-2.5,5.7,5.7,0,0,1-2.8-6.8,6,6,0,0,1,6.1-4.7,6.2,6.2,0,0,1,6,4.8,6.1,6.1,0,0,1-3,6.8c-1.4.6-1.6,1.4-1.6,2.7,0,23.2,0,46.3.1,69.5a3.5,3.5,0,0,1-1.1,2.7l-15.3,15.1a3.6,3.6,0,0,0-1.1,2.5c.1,8.5.1,17,.1,25.5,0,.4-.2.9.4,1.2,4.5-2.6,8.8-5.4,13-8.4a1.9,1.9,0,0,0,.6-1.7V458.6a1.9,1.9,0,0,0-.9-1.8,4.8,4.8,0,0,1-2.1-5.3,4.7,4.7,0,0,1,4.6-3.6,4.6,4.6,0,0,1,4.8,3.2,4.9,4.9,0,0,1-1.8,5.7c-.6.4-1.3.6-1.3,1.6.1,4.4.1,8.8.1,13.2l.3.4c4.2-3.1,8.2-6.4,12.2-9.7a3.3,3.3,0,0,0,1.3-2.9V362a3.3,3.3,0,0,0-1.1-2.7l-15-15a3.2,3.2,0,0,1-1.2-2.6c.1-6.2.1-12.3.1-18.5A2.2,2.2,0,0,0,523,321a4.7,4.7,0,0,1-1.7-5.6,5,5,0,0,1,4.8-3.3,4.9,4.9,0,0,1,4.5,3.5,4.8,4.8,0,0,1-2,5.5,2.4,2.4,0,0,0-1.2,2.3c.1,5.6.1,11.3,0,16.9a3,3,0,0,0,1.1,2.5c4.9,5,9.9,10,14.9,14.9a4.2,4.2,0,0,1,1.3,3.2q-.2,47.6-.1,94.9a3.3,3.3,0,0,0,.3,1.9l.8-.6c3.5-3.2,6.9-6.6,10.2-10.1a3.6,3.6,0,0,0,1.2-3.1V391a4.1,4.1,0,0,1,1.4-3.4l13.1-13a3.1,3.1,0,0,0,1-2.4c-.1-27.6,0-55.1,0-82.7a2.9,2.9,0,0,0-.9-2.2L561.3,277a1.7,1.7,0,0,0-2.1-.7,4.9,4.9,0,0,1-5.4-2.4,5.2,5.2,0,0,1,.7-5.8,5,5,0,0,1,5.8-1,4.6,4.6,0,0,1,2.6,5.2,2.2,2.2,0,0,0,.8,2.3l11.2,11.1a3.5,3.5,0,0,1,1,2.5v85.4a3.2,3.2,0,0,1-1,2.5l-13.5,13.4a2.8,2.8,0,0,0-.9,2.3v48.6c0,.3-.2.8.4,1,3.8-4.1,7.3-8.6,10.7-13a4.7,4.7,0,0,0,1-3c-.1-7.6-.1-15.3,0-22.9a2.6,2.6,0,0,0-1.2-2.5,4.9,4.9,0,1,1,7.7-5.2,4.7,4.7,0,0,1-2.1,5.4,2.1,2.1,0,0,0-1.1,2.2v17.8a2.4,2.4,0,0,0,.3,1.6l.9-1.2c4.3-6.2,8.1-12.7,11.8-19.3a9.7,9.7,0,0,0,1.2-4.7V336.4a3.7,3.7,0,0,1,1.1-2.8l10.1-10a2,2,0,0,0,.7-2.5,4.5,4.5,0,0,1,1.8-5.5,4.8,4.8,0,0,1,5.7.1,4.9,4.9,0,0,1,1.8,5.4,4.6,4.6,0,0,1-4.7,3.4,3.1,3.1,0,0,0-2.4,1l-9.8,9.8a3.1,3.1,0,0,0-1,2.4c.1,17.5,0,35,.1,52.5,0,.4-.2.9.3,1.3A220.7,220.7,0,0,0,613,324.2c2.4-19.4.2-63.8-3.8-69.7,0,11.9,0,23.8-.1,35.7a2.1,2.1,0,0,0,1.2,2,4.8,4.8,0,0,1-2.7,8.9,4.7,4.7,0,0,1-4.7-3.3,4.6,4.6,0,0,1,1.8-5.5,2.4,2.4,0,0,0,1.2-2.4c-.1-16.2-.1-32.5-.1-48.8a11.3,11.3,0,0,0-.3-2.5,209.2,209.2,0,0,0-11.2-29.4c-.2-.3-.2-.9-.9-1v2.3c0,12.7.1,25.5,0,38.3a2.5,2.5,0,0,0,1.4,2.5,5.9,5.9,0,0,1,2.8,6.9,6.3,6.3,0,0,1-6,4.6,6.1,6.1,0,0,1-6-4.8,5.9,5.9,0,0,1,3.1-6.9,2.2,2.2,0,0,0,1.4-2.4V202.2a5.8,5.8,0,0,0-.8-3.1c-3.1-5.8-6.5-11.5-10.1-17-.3-.5-.5-1.1-1.2-1.3s-.3,1.1-.3,1.6v77.3a3.5,3.5,0,0,0,1.1,2.6l13.4,13.3a4,4,0,0,1,1.3,3.1c-.1,10.3,0,20.6-.1,30.9a2.1,2.1,0,0,0,1.2,2.1,5.9,5.9,0,0,1,3.1,6.8,6.3,6.3,0,0,1-6.1,4.8,6.4,6.4,0,0,1-6.1-4.8,6.2,6.2,0,0,1,3.1-6.9,2.2,2.2,0,0,0,1.5-2.4V280a3.6,3.6,0,0,0-1.2-2.8c-4.5-4.4-8.8-8.9-13.3-13.2a4,4,0,0,1-1.3-3.2c.1-28,0-56,0-84a4,4,0,0,0-.4-2.4,206.3,206.3,0,0,0-13-16.3c-.3-.3-.4-.7-1.1-.4v1.9c0,28.7,0,57.3.1,86a4.2,4.2,0,0,1-1.3,3.1l-12.9,12.8a3.5,3.5,0,0,0-1.1,2.6c.1,22.8.1,45.7,0,68.5a2.1,2.1,0,0,0,1.3,2.2,5.9,5.9,0,0,1,2.9,6.9,6.1,6.1,0,0,1-5.9,4.7,6.2,6.2,0,0,1-6.1-4.7,5.8,5.8,0,0,1,3-6.9c1.3-.6,1.5-1.5,1.5-2.8q0-34.5-.1-68.9a4.2,4.2,0,0,1,1.4-3.3l13-12.9a2.9,2.9,0,0,0,.9-2.2V154.5a2.6,2.6,0,0,0-.9-2.2l-8.5-8.5a7.8,7.8,0,0,0-2.4-1.9c0,.4-.1.7-.1,1v91.8a2,2,0,0,0,1.1,1.9,4.9,4.9,0,0,1,1.8,5.6,4.8,4.8,0,0,1-4.8,3.3,4.9,4.9,0,0,1-2.5-9,2.1,2.1,0,0,0,1.1-2V139.9a2.7,2.7,0,0,0-1.2-2.4q-5.6-4.8-11.4-9.3c-.3-.2-.6-.6-1.2-.4v.5c-.1,22.8,0,45.6-.1,68.3a1.5,1.5,0,0,0,1.2,1.6,6.2,6.2,0,1,1-8.7,7.3,6,6,0,0,1,3.1-7.1,1.9,1.9,0,0,0,1.1-1.9V126a2,2,0,0,0-1.1-1.9c-3.9-2.8-7.9-5.4-12-7.9-.3-.1-.6-.5-1.1-.3a2.2,2.2,0,0,0-.2,1.4V206a3.6,3.6,0,0,0,1.1,2.5l15.4,15.3a4,4,0,0,1,1.3,3.1c-.1,18.5,0,37.1-.1,55.7a2.1,2.1,0,0,0,1.4,2.3,6,6,0,0,1,3.2,6.8,6.2,6.2,0,0,1-6,4.9,6.1,6.1,0,0,1-6.1-4.6,6,6,0,0,1,2.9-7,2.1,2.1,0,0,0,1.3-2.3V228.1a3.6,3.6,0,0,0-1.2-2.8l-15.5-15.4a3.3,3.3,0,0,1-1-2.5V115.2a2.4,2.4,0,0,0-1.4-2.5l-9.8-5.1a2.6,2.6,0,0,0-2.1-.7c0,3.7-.1,7.3,0,10.9a2.8,2.8,0,0,1-1,2.3l-12.7,12.7a4.4,4.4,0,0,0-1.4,3.4v94.2a3.9,3.9,0,0,1-1.1,2.9l-12.8,12.6a2.1,2.1,0,0,0-.6,2.4,6,6,0,0,1-2.8,7.1,6.3,6.3,0,0,1-7.6-1,6.5,6.5,0,0,1-.9-7.6,6.2,6.2,0,0,1,7.2-2.7,2,2,0,0,0,2.4-.6q5.6-5.7,11.4-11.4a4.2,4.2,0,0,0,1.4-3.5v-94a4.1,4.1,0,0,1,1.2-3c4.4-4.2,8.6-8.5,12.9-12.8a3,3,0,0,0,1-2V106.1c0-.5.1-1.1-.5-1.4-3.8-1.8-7.5-3.4-11.6-4.9v13.4c0,.8.6.9,1,1.1a6.2,6.2,0,1,1-8.9,6.9,6.1,6.1,0,0,1,3.5-6.9,1.5,1.5,0,0,0,1-1.7c0-3,.1-6,0-9s.7-3.7-.2-5-3.1-1.3-4.6-1.9a60.5,60.5,0,0,0-6.9-2.1,3.3,3.3,0,0,0-.3,1.9V207.2a3,3,0,0,0,1.4,2.9,4.8,4.8,0,0,1,.4,7.2,4.9,4.9,0,0,1-7.2-.1,4.9,4.9,0,0,1,.8-7.2,2.7,2.7,0,0,0,1.3-2.7V95.1a1.9,1.9,0,0,0-1.7-2.2l-8-2a8.3,8.3,0,0,0-3.2-.5v2.1c0,18.2-.1,36.5,0,54.7a3.3,3.3,0,0,1-1.2,2.8c-5,5-10,10.1-15.1,15.1a3.4,3.4,0,0,0-1.1,2.5v26.6a2,2,0,0,0,1.3,2.2,6.1,6.1,0,0,1,3.2,6.9,6.3,6.3,0,0,1-12.2.1,6.1,6.1,0,0,1,3-6.9,2.3,2.3,0,0,0,1.4-2.5c-.1-9.2,0-18.4-.1-27.6a3.6,3.6,0,0,1,1.2-2.8c5.1-5,10.1-10.1,15.1-15.1a3.3,3.3,0,0,0,1.1-2.7V91.3a3.1,3.1,0,0,0-.2-1.9,122.2,122.2,0,0,0-13.7-2.2c0,.6-.1,1-.1,1.3v40a2.1,2.1,0,0,0,1.2,2,4.9,4.9,0,1,1-7.5,5.6,4.5,4.5,0,0,1,1.7-5.4,2.8,2.8,0,0,0,1.3-2.7V87.7c0-.6-.1-1-.8-1.1-4.1-.5-8.3-1-12.6-1.1v2.4q0,59.9-.1,119.8a3.6,3.6,0,0,0,1.2,2.8l14.3,14.2a4.2,4.2,0,0,1,1.4,3.3q-.1,30.9-.1,61.8c0,1.5.2,2.4,1.7,3.2a5.9,5.9,0,0,1,2.7,6.9,6.4,6.4,0,0,1-6.1,4.6,6.5,6.5,0,0,1-6-4.9,6.1,6.1,0,0,1,3-6.8,2.2,2.2,0,0,0,1.4-2.4V229a3.5,3.5,0,0,0-1.1-2.6l-14.3-14.3a4.4,4.4,0,0,1-1.4-3.4V87.6a3.8,3.8,0,0,0-.3-2.3c-4.7-.2-9.4-.3-14-.1a2.8,2.8,0,0,0-.3,1.7v75.6a2.1,2.1,0,0,0,1.3,2.1,6.1,6.1,0,0,1,3,6.9,6.2,6.2,0,0,1-6,4.7,6,6,0,0,1-6-4.5,6.1,6.1,0,0,1,2.9-7.1c1.3-.6,1.4-1.3,1.4-2.5V87.2A3.2,3.2,0,0,0,390.3,85.3Zm-26.2,55.8a2.9,2.9,0,0,0-2.9-2.9,2.9,2.9,0,0,0-2.8,2.8,3,3,0,0,0,2.9,2.9A2.9,2.9,0,0,0,364.1,141.1ZM525.8,361.9a2.9,2.9,0,1,0,.2-5.7,2.8,2.8,0,0,0-2.9,2.8A2.9,2.9,0,0,0,525.8,361.9ZM210.2,343a3,3,0,0,0-3-2.8,3,3,0,0,0-2.7,2.9,2.8,2.8,0,0,0,3,2.8A2.9,2.9,0,0,0,210.2,343Zm381.5-89.3a2.9,2.9,0,1,0-.1,5.7,3,3,0,0,0,2.9-2.9A2.9,2.9,0,0,0,591.7,253.7ZM426.9,295.4a2.8,2.8,0,0,0-2.8,2.8,3,3,0,0,0,2.9,2.9,3,3,0,0,0,2.8-3A2.7,2.7,0,0,0,426.9,295.4Zm101.9-5.1a2.9,2.9,0,0,0-2.9-2.7,2.7,2.7,0,0,0-2.8,2.8,3,3,0,0,0,2.8,2.9A3.1,3.1,0,0,0,528.8,290.3Zm62.9,23.9a2.9,2.9,0,0,0-2.9,2.9,2.8,2.8,0,0,0,2.7,2.8,3,3,0,0,0,3-2.9A2.9,2.9,0,0,0,591.7,314.2ZM320.9,186a3.1,3.1,0,0,0-2.9,2.8,3,3,0,0,0,3,2.9,2.8,2.8,0,0,0,2.7-2.8A2.8,2.8,0,0,0,320.9,186Zm207.8,17.9a2.8,2.8,0,0,0-2.8-2.9,2.9,2.9,0,1,0,2.8,2.9Zm-303.8,1.3a2.9,2.9,0,0,0-2.8,2.8,2.9,2.9,0,0,0,2.9,2.9,3,3,0,0,0,2.8-2.8A2.9,2.9,0,0,0,224.9,205.2Zm167.2-32.3a3,3,0,0,0,2.9-2.8,2.8,2.8,0,0,0-2.8-3,3,3,0,0,0-2.9,2.8A3.1,3.1,0,0,0,392.1,172.9ZM395,353.6a2.9,2.9,0,0,0-5.7-.2,3.1,3.1,0,0,0,2.7,3A3,3,0,0,0,395,353.6ZM259.7,218.1a3,3,0,0,0-3-2.8,2.9,2.9,0,0,0-2.7,2.9,2.9,2.9,0,0,0,2.8,2.8A3,3,0,0,0,259.7,218.1Zm24.7,72a2.9,2.9,0,0,0-2.7,3.1,2.7,2.7,0,0,0,2.9,2.6,2.9,2.9,0,0,0,2.8-2.8A3.1,3.1,0,0,0,284.4,290.1Zm35.8,77.8a2.9,2.9,0,0,0-2.7-2.9,2.8,2.8,0,0,0-3,2.7,3,3,0,0,0,2.7,3A3,3,0,0,0,320.2,367.9ZM475.8,122.8a2.9,2.9,0,0,0,2.8-3,2.9,2.9,0,0,0-5.7,0A3.1,3.1,0,0,0,475.8,122.8ZM272.1,376.1a2.8,2.8,0,0,0-2.8,2.7,3,3,0,0,0,2.8,3,2.9,2.9,0,0,0,2.8-3A2.7,2.7,0,0,0,272.1,376.1ZM429.8,201.8a2.8,2.8,0,0,0-2.8-2.7,2.8,2.8,0,0,0-2.9,2.8,3.1,3.1,0,0,0,2.9,2.9A2.9,2.9,0,0,0,429.8,201.8ZM309.1,270.2a2.9,2.9,0,1,0-5.7,0,2.9,2.9,0,0,0,2.8,2.8A2.8,2.8,0,0,0,309.1,270.2Zm53.4,165.3a2.8,2.8,0,0,0-2.8-2.8,2.8,2.8,0,0,0-2.9,2.8,3,3,0,0,0,2.8,2.9A3,3,0,0,0,362.5,435.5ZM542.7,343a3,3,0,0,0,3-2.9,2.9,2.9,0,0,0-2.8-2.8,2.9,2.9,0,0,0-2.9,2.9A2.8,2.8,0,0,0,542.7,343Zm-85.2-95.8a2.9,2.9,0,0,0-2.8,2.8,2.9,2.9,0,1,0,5.7,0A2.8,2.8,0,0,0,457.5,247.2ZM210.2,283.5a2.9,2.9,0,0,0-5.7,0,3,3,0,0,0,2.9,2.9A2.9,2.9,0,0,0,210.2,283.5ZM393.8,461.8a3.1,3.1,0,0,0-3-2.8,2.7,2.7,0,0,0-2.7,2.9,2.8,2.8,0,0,0,2.7,2.8A3.1,3.1,0,0,0,393.8,461.8Zm37.3-84.3a3,3,0,0,0-2.9-2.8,2.9,2.9,0,0,0,0,5.7A2.9,2.9,0,0,0,431.1,377.5Z" transform="translate(-142 -43)"/><path d="M514.2,308.6a6.4,6.4,0,0,1-5.1,6.5,6.2,6.2,0,0,1-7-4.1,5.9,5.9,0,0,1,2.8-7.4,2.4,2.4,0,0,0,1.5-2.6V237.1a3.3,3.3,0,0,0-1.2-2.8l-14.4-14.4a3.6,3.6,0,0,1-1.1-2.8V140.2a2.9,2.9,0,0,0-1.3-2.8,4.8,4.8,0,0,1-.6-7.2,4.9,4.9,0,0,1,7.2,0,4.7,4.7,0,0,1-.6,7.1,3.4,3.4,0,0,0-1.4,3q.2,37.5,0,75.2a4,4,0,0,0,1.3,3.1l14.1,14a3.9,3.9,0,0,1,1.4,3.2q-.2,32.7-.1,65.2a2.4,2.4,0,0,0,1.4,2.6A5.6,5.6,0,0,1,514.2,308.6ZM508,306a3.1,3.1,0,0,0-2.9,3,3.1,3.1,0,0,0,2.9,2.8,2.9,2.9,0,0,0,2.8-2.8A3,3,0,0,0,508,306Z" transform="translate(-142 -43)"/><path d="M256.9,325.3a6.3,6.3,0,0,1-6.1-4.8,5.9,5.9,0,0,1,3-6.9c1.2-.6,1.4-1.3,1.4-2.6V245.3a5.2,5.2,0,0,1,1.6-4.1c4.1-3.9,8-8,12.1-12a3.2,3.2,0,0,0,1-2.5V158.6a2.1,2.1,0,0,0-1.2-2.1,4.7,4.7,0,0,1-2-5.3,4.8,4.8,0,0,1,4.4-3.6,4.8,4.8,0,0,1,3.4,8.6,2.8,2.8,0,0,0-1.2,2.7v69A4,4,0,0,1,272,231l-12.4,12.3a3.3,3.3,0,0,0-1.1,2.5q.2,32.8,0,65.7a2.1,2.1,0,0,0,1.3,2.1,6,6,0,0,1,3.1,6.8A6.4,6.4,0,0,1,256.9,325.3Zm0-9.1a2.8,2.8,0,0,0-.2,5.6,3,3,0,0,0,3-2.8A2.9,2.9,0,0,0,256.9,316.2Z" transform="translate(-142 -43)"/><path d="M475.8,275.1a6.1,6.1,0,0,1,6,4.6,5.9,5.9,0,0,1-2.7,6.8,2.6,2.6,0,0,0-1.5,2.7V394.5a2.9,2.9,0,0,0,1.2,2.7,4.8,4.8,0,0,1,.4,7.3A4.9,4.9,0,1,1,473,397a2.5,2.5,0,0,0,1.2-2.6q0-52.5.1-105.2a2.5,2.5,0,0,0-1.5-2.6,5.9,5.9,0,0,1-3.1-6.8A6.2,6.2,0,0,1,475.8,275.1Zm2.8,6.2a2.9,2.9,0,0,0-2.7-2.9,2.9,2.9,0,1,0-.2,5.7A2.9,2.9,0,0,0,478.6,281.3Z" transform="translate(-142 -43)"/><path d="M408.5,287.2V242.7a2.7,2.7,0,0,0-1.3-2.7,4.8,4.8,0,0,1-.9-7.2,5,5,0,0,1,7.4-.1,4.9,4.9,0,0,1-.6,7.2,2.6,2.6,0,0,0-1.2,2.5v89.9c0,1.2.1,1.9,1.3,2.5a6.2,6.2,0,0,1,2.9,7,6.3,6.3,0,0,1-6.2,4.6,6.4,6.4,0,0,1-5.9-4.8,5.9,5.9,0,0,1,3.2-6.9,2,2,0,0,0,1.3-2.2Zm4.4,53a2.9,2.9,0,0,0-2.7-2.9,2.9,2.9,0,0,0-3,2.8,3,3,0,0,0,2.7,2.9A2.8,2.8,0,0,0,412.9,340.2Z" transform="translate(-142 -43)"/><path d="M339.4,257.1a6.2,6.2,0,0,1,6.1,4.6,6.1,6.1,0,0,1-2.8,7,2.3,2.3,0,0,0-1.4,2.5v83.3a2.9,2.9,0,0,0,1.2,2.7,4.8,4.8,0,0,1,.4,7.3,4.9,4.9,0,0,1-7.2-.4,4.7,4.7,0,0,1,.9-7.1,2.4,2.4,0,0,0,1.3-2.4V271a2,2,0,0,0-1.3-2.1,6.2,6.2,0,0,1-3.2-7A6.4,6.4,0,0,1,339.4,257.1Zm2.9,6.3a2.9,2.9,0,0,0-2.7-2.9,3,3,0,0,0-3,2.9,2.9,2.9,0,0,0,5.7,0Z" transform="translate(-142 -43)"/><path d="M437.3,452.2a5.6,5.6,0,0,1,3.4-4.9,2.1,2.1,0,0,0,1.4-2.2q-.2-38.9-.1-77.9a2,2,0,0,0-1.1-2.1,4.9,4.9,0,0,1-2.1-5.5,5.1,5.1,0,0,1,4.5-3.5,4.8,4.8,0,0,1,4.9,3.2,4.9,4.9,0,0,1-1.7,5.6,2.4,2.4,0,0,0-1.1,2.3v77.6a2.5,2.5,0,0,0,1.4,2.7,5.9,5.9,0,0,1,2.6,7.5,6.3,6.3,0,0,1-6.8,3.9C439.5,458.3,437.4,455.9,437.3,452.2Zm9.1.6a2.9,2.9,0,0,0-2.7-2.9,2.9,2.9,0,0,0-3,2.8,3.1,3.1,0,0,0,2.7,2.9A3,3,0,0,0,446.4,452.8Z" transform="translate(-142 -43)"/><path d="M245.8,231.8a4.6,4.6,0,0,1-2.2,4.1,1.9,1.9,0,0,0-1,1.9v62.7a2,2,0,0,0,1.1,2,5.9,5.9,0,0,1,3.2,6.9,6.2,6.2,0,0,1-12.1-.1,5.9,5.9,0,0,1,3.3-6.9,1.8,1.8,0,0,0,1.2-2V237.8a2.2,2.2,0,0,0-1.2-2,4.7,4.7,0,0,1-1.7-6,4.9,4.9,0,0,1,9.4,2ZM243.7,308a2.9,2.9,0,0,0-2.7-2.9,2.9,2.9,0,0,0-3,2.8,3,3,0,0,0,2.8,2.9A2.9,2.9,0,0,0,243.7,308Z" transform="translate(-142 -43)"/><path d="M551.9,371.6a5.7,5.7,0,0,1,3.5-4.8,1.6,1.6,0,0,0,1.1-1.8V302.2a1.7,1.7,0,0,0-.9-1.8,4.6,4.6,0,0,1-2.2-5.5,4.8,4.8,0,0,1,4.6-3.6,5,5,0,0,1,4.8,3.4,4.7,4.7,0,0,1-2,5.6,2.2,2.2,0,0,0-1,2.1v62.4a2.2,2.2,0,0,0,1.3,2.2,6,6,0,0,1,2.9,7.5,6.3,6.3,0,0,1-6.9,4C554,378,551.9,375.4,551.9,371.6Zm9.1.8a2.9,2.9,0,1,0-3.1,2.8A3.1,3.1,0,0,0,561,372.4Z" transform="translate(-142 -43)"/><path d="M437.4,339.5a5.6,5.6,0,0,1,3.5-4.9,1.6,1.6,0,0,0,1.1-1.8V280.1a1.9,1.9,0,0,0-.9-1.8,4.8,4.8,0,0,1-2.3-5.5,4.9,4.9,0,0,1,4.5-3.6,4.7,4.7,0,0,1,4.9,3.3,4.8,4.8,0,0,1-1.9,5.7,1.9,1.9,0,0,0-.9,1.8v52.9c0,1.1.6,1.5,1.4,1.9a6.2,6.2,0,0,1,2.6,7.7,6.4,6.4,0,0,1-7,3.8C439.4,345.7,437.3,343.1,437.4,339.5Zm6.1-2.2a3,3,0,0,0-2.8,2.9,2.9,2.9,0,1,0,5.7-.2A2.9,2.9,0,0,0,443.5,337.3Z" transform="translate(-142 -43)"/><path d="M320.3,384.1a4.6,4.6,0,0,1,4.6,3.4A4.6,4.6,0,0,1,323,393a2.4,2.4,0,0,0-1.2,2.4c.1,11.2.1,22.4,0,33.7a2.4,2.4,0,0,0,1.3,2.4,4.9,4.9,0,1,1-6.3,7.5,4.8,4.8,0,0,1,.3-7.2,3.2,3.2,0,0,0,1.4-2.9c-.1-11.2-.1-22.4-.1-33.6a2.6,2.6,0,0,0-1.2-2.5,4.9,4.9,0,0,1,3.1-8.7Z" transform="translate(-142 -43)"/><path d="M287.7,309.6a4.8,4.8,0,0,1,2.9,8.8,2.3,2.3,0,0,0-1.2,2.3v27.6a1.8,1.8,0,0,0,1.1,2,5.9,5.9,0,0,1,3.3,6.9,6.3,6.3,0,0,1-6,4.8,6.2,6.2,0,0,1-6.1-4.7,6.1,6.1,0,0,1,3.1-7,1.9,1.9,0,0,0,1.3-2c-.1-9.3-.1-18.5,0-27.8a2.1,2.1,0,0,0-1.2-2A5,5,0,0,1,283,313,4.7,4.7,0,0,1,287.7,309.6Zm.1,49.1a3.1,3.1,0,0,0,2.8-3.1,2.8,2.8,0,0,0-2.9-2.6,2.7,2.7,0,0,0-2.8,2.7A3.1,3.1,0,0,0,287.8,358.7Z" transform="translate(-142 -43)"/><path d="M376,421.5a4.9,4.9,0,0,1-2.7-8.8,2.3,2.3,0,0,0,1.1-2.2V385.6a2.4,2.4,0,0,0-1.1-2.2,4.8,4.8,0,0,1-1.7-5.6,4.6,4.6,0,0,1,4.7-3.1,4.8,4.8,0,0,1,2.7,8.8,2.4,2.4,0,0,0-1.2,2.4v24.4a2.3,2.3,0,0,0,1.2,2.3,4.6,4.6,0,0,1,1.8,5.6A4.7,4.7,0,0,1,376,421.5Z" transform="translate(-142 -43)"/><path d="M303.1,211.3a4.7,4.7,0,0,1,4.6,3.4,4.8,4.8,0,0,1-1.7,5.4,2.4,2.4,0,0,0-1.3,2.5q.2,9.5,0,18.9a2.4,2.4,0,0,0,1.1,2.3,4.7,4.7,0,0,1,1.9,5.5,5.1,5.1,0,0,1-4.8,3.4,4.8,4.8,0,0,1-4.6-3.6,4.6,4.6,0,0,1,2-5.4,2.1,2.1,0,0,0,1.1-2.1V222.5a2.3,2.3,0,0,0-1.2-2.3,4.9,4.9,0,0,1,2.9-8.9Z" transform="translate(-142 -43)"/><path d="M358,233c0-2.9,0-5.8.1-8.8a2,2,0,0,0-1-1.9,4.6,4.6,0,0,1-2.2-5.5,4.9,4.9,0,0,1,9.3-.4,4.8,4.8,0,0,1-1.8,5.8,2,2,0,0,0-1,2v17.6a2.2,2.2,0,0,0,1,1.9,4.8,4.8,0,0,1,1.8,5.7,4.7,4.7,0,0,1-4.8,3.3,4.9,4.9,0,0,1-4.5-3.6,4.8,4.8,0,0,1,2.2-5.5,2,2,0,0,0,1-1.9C358,238.8,358,235.9,358,233Z" transform="translate(-142 -43)"/></svg>